<svg width="16" height="10" viewBox="0 0 16 10" fill="none" xmlns="http://www.w3.org/2000/svg">
<path fill-rule="evenodd" clip-rule="evenodd" d="M12.8 0H2.4C1.76348 0 1.15303 0.252856 0.702944 0.702944C0.252856 1.15303 0 1.76348 0 2.4V7.2C0 7.83652 0.252856 8.44697 0.702944 8.89705C1.15303 9.34714 1.76348 9.6 2.4 9.6H12.8C13.4365 9.6 14.047 9.34714 14.4971 8.89705C14.9471 8.44697 15.2 7.83652 15.2 7.2C15.4122 7.2 15.6157 7.11571 15.7657 6.96568C15.9157 6.81565 16 6.61217 16 6.4V3.2C16 2.98783 15.9157 2.78434 15.7657 2.63431C15.6157 2.48428 15.4122 2.4 15.2 2.4C15.2 1.76348 14.9471 1.15303 14.4971 0.702944C14.047 0.252856 13.4365 0 12.8 0ZM12.8 1.6H2.4C2.18783 1.6 1.98434 1.68429 1.83431 1.83431C1.68429 1.98434 1.6 2.18783 1.6 2.4V7.2C1.6 7.41217 1.68429 7.61565 1.83431 7.76568C1.98434 7.91571 2.18783 8 2.4 8H12.8C13.0122 8 13.2157 7.91571 13.3657 7.76568C13.5157 7.61565 13.6 7.41217 13.6 7.2V2.4C13.6 2.18783 13.5157 1.98434 13.3657 1.83431C13.2157 1.68429 13.0122 1.6 12.8 1.6Z" fill="#5A6872"/>
</svg>
