<svg width="828" height="726" viewBox="0 0 828 726" fill="none" xmlns="http://www.w3.org/2000/svg">
<rect width="30" height="30" rx="15" fill="#0E1012"/>
<rect y="116" width="30" height="30" rx="15" fill="#0E1012"/>
<rect y="232" width="30" height="30" rx="15" fill="#0E1012"/>
<rect y="348" width="30" height="30" rx="15" fill="#0E1012"/>
<rect y="464" width="30" height="30" rx="15" fill="#0E1012"/>
<rect y="580" width="30" height="30" rx="15" fill="#0E1012"/>
<rect y="696" width="30" height="30" rx="15" fill="#0E1012"/>
<rect x="133" width="30" height="30" rx="15" fill="#0E1012"/>
<rect x="133" y="116" width="30" height="30" rx="15" fill="#0E1012"/>
<rect x="133" y="232" width="30" height="30" rx="15" fill="#0E1012"/>
<rect x="133" y="348" width="30" height="30" rx="15" fill="#0E1012"/>
<rect x="133" y="464" width="30" height="30" rx="15" fill="#0E1012"/>
<rect x="133" y="580" width="30" height="30" rx="15" fill="#0E1012"/>
<rect x="133" y="696" width="30" height="30" rx="15" fill="#0E1012"/>
<rect x="266" width="30" height="30" rx="15" fill="#0E1012"/>
<rect x="266" y="116" width="30" height="30" rx="15" fill="#0E1012"/>
<rect x="266" y="232" width="30" height="30" rx="15" fill="#0E1012"/>
<rect x="266" y="348" width="30" height="30" rx="15" fill="#0E1012"/>
<rect x="266" y="464" width="30" height="30" rx="15" fill="#0E1012"/>
<rect x="266" y="580" width="30" height="30" rx="15" fill="#0E1012"/>
<rect x="266" y="696" width="30" height="30" rx="15" fill="#0E1012"/>
<rect x="399" width="30" height="30" rx="15" fill="#0E1012"/>
<rect x="399" y="116" width="30" height="30" rx="15" fill="#0E1012"/>
<rect x="399" y="232" width="30" height="30" rx="15" fill="#0E1012"/>
<rect x="399" y="348" width="30" height="30" rx="15" fill="#0E1012"/>
<rect x="399" y="464" width="30" height="30" rx="15" fill="#0E1012"/>
<rect x="399" y="580" width="30" height="30" rx="15" fill="#0E1012"/>
<rect x="399" y="696" width="30" height="30" rx="15" fill="#0E1012"/>
<rect x="532" width="30" height="30" rx="15" fill="#0E1012"/>
<rect x="532" y="116" width="30" height="30" rx="15" fill="#0E1012"/>
<rect x="532" y="232" width="30" height="30" rx="15" fill="#0E1012"/>
<rect x="532" y="348" width="30" height="30" rx="15" fill="#0E1012"/>
<rect x="532" y="464" width="30" height="30" rx="15" fill="#0E1012"/>
<rect x="532" y="580" width="30" height="30" rx="15" fill="#0E1012"/>
<rect x="532" y="696" width="30" height="30" rx="15" fill="#0E1012"/>
<rect x="665" width="30" height="30" rx="15" fill="#0E1012"/>
<rect x="665" y="116" width="30" height="30" rx="15" fill="#0E1012"/>
<rect x="665" y="232" width="30" height="30" rx="15" fill="#0E1012"/>
<rect x="665" y="348" width="30" height="30" rx="15" fill="#0E1012"/>
<rect x="665" y="464" width="30" height="30" rx="15" fill="#0E1012"/>
<rect x="665" y="580" width="30" height="30" rx="15" fill="#0E1012"/>
<rect x="665" y="696" width="30" height="30" rx="15" fill="#0E1012"/>
<rect x="798" width="30" height="30" rx="15" fill="#0E1012"/>
<rect x="798" y="116" width="30" height="30" rx="15" fill="#0E1012"/>
<rect x="798" y="232" width="30" height="30" rx="15" fill="#0E1012"/>
<rect x="798" y="348" width="30" height="30" rx="15" fill="#0E1012"/>
<rect x="798" y="464" width="30" height="30" rx="15" fill="#0E1012"/>
<rect x="798" y="580" width="30" height="30" rx="15" fill="#0E1012"/>
<rect x="798" y="696" width="30" height="30" rx="15" fill="#0E1012"/>
</svg>
