<svg width="30" height="30" viewBox="0 0 30 30" fill="none" xmlns="http://www.w3.org/2000/svg">
    <path
        d="M11.6667 16.1667H1.66667C1.02614 16.1667 0.5 15.6405 0.5 15V1.66667C0.5 1.02614 1.02614 0.5 1.66667 0.5H11.6667C12.3072 0.5 12.8333 1.02614 12.8333 1.66667V15C12.8333 15.6405 12.3072 16.1667 11.6667 16.1667ZM11.6667 29.5H1.66667C1.02614 29.5 0.5 28.9739 0.5 28.3333V21.6667C0.5 21.0261 1.02614 20.5 1.66667 20.5H11.6667C12.3072 20.5 12.8333 21.0261 12.8333 21.6667V28.3333C12.8333 28.9739 12.3072 29.5 11.6667 29.5ZM28.3333 29.5H18.3333C17.6928 29.5 17.1667 28.9739 17.1667 28.3333V15C17.1667 14.3595 17.6928 13.8333 18.3333 13.8333H28.3333C28.9739 13.8333 29.5 14.3595 29.5 15V28.3333C29.5 28.9739 28.9739 29.5 28.3333 29.5ZM17.1667 8.33333V1.66667C17.1667 1.02614 17.6928 0.5 18.3333 0.5H28.3333C28.9739 0.5 29.5 1.02614 29.5 1.66667V8.33333C29.5 8.97386 28.9739 9.5 28.3333 9.5H18.3333C17.6928 9.5 17.1667 8.97386 17.1667 8.33333Z"
        stroke="#F6F6F7" stroke-width="2px" />
</svg>