<?xml version="1.0" encoding="UTF-8"?>
<svg xmlns="http://www.w3.org/2000/svg" xmlns:xlink="http://www.w3.org/1999/xlink" width="30px"
    height="30px" viewBox="0 0 30 30" version="1.1">
    <g id="surface1">
        <path style="stroke:none;fill-rule:evenodd;fill:#F6F6F7;fill-opacity:1;"
            d="M 14.492188 0.617188 C 14.203125 0.789062 14.421875 0.28125 12.210938 5.847656 C 11.289062 8.160156 10.519531 10.066406 10.5 10.089844 C 10.476562 10.113281 8.234375 10.277344 5.519531 10.453125 C 0.0859375 10.808594 0.34375 10.773438 0.101562 11.183594 C -0.0507812 11.441406 -0.0351562 11.9375 0.132812 12.171875 C 0.203125 12.269531 1.910156 13.730469 3.925781 15.410156 C 5.941406 17.09375 7.625 18.503906 7.667969 18.546875 C 7.734375 18.609375 7.554688 19.375 6.535156 23.386719 C 5.179688 28.707031 5.207031 28.554688 5.578125 28.925781 C 6.128906 29.476562 5.964844 29.554688 10.832031 26.480469 C 13.097656 25.050781 14.972656 23.882812 14.992188 23.886719 C 15.015625 23.894531 16.863281 25.054688 19.105469 26.472656 C 24.050781 29.597656 23.671875 29.40625 24.21875 29.066406 C 24.777344 28.722656 24.792969 28.820312 23.402344 23.359375 C 22.40625 19.4375 22.210938 18.605469 22.273438 18.546875 C 22.316406 18.503906 24.015625 17.097656 26.046875 15.414062 C 28.074219 13.730469 29.796875 12.269531 29.867188 12.167969 C 30.042969 11.929688 30.050781 11.433594 29.886719 11.167969 C 29.640625 10.769531 29.882812 10.800781 24.445312 10.449219 C 21.714844 10.273438 19.464844 10.109375 19.445312 10.089844 C 19.421875 10.066406 18.609375 8.046875 17.636719 5.59375 C 16.664062 3.144531 15.816406 1.042969 15.753906 0.921875 C 15.535156 0.488281 14.945312 0.34375 14.492188 0.617188 M 16.496094 7.675781 C 18.015625 11.503906 18.105469 11.691406 18.449219 11.832031 C 18.535156 11.863281 20.417969 12.011719 22.640625 12.152344 C 24.859375 12.296875 26.683594 12.425781 26.699219 12.441406 C 26.710938 12.453125 25.355469 13.601562 23.6875 14.988281 C 20.179688 17.90625 20.324219 17.769531 20.289062 18.148438 C 20.265625 18.375 21.765625 24.554688 22.242188 26.203125 C 22.257812 26.261719 20.800781 25.375 18.828125 24.128906 C 15.28125 21.890625 15.148438 21.8125 14.816406 21.878906 C 14.703125 21.898438 13.136719 22.855469 11.160156 24.101562 C 9.261719 25.304688 7.699219 26.285156 7.691406 26.28125 C 7.6875 26.277344 8.128906 24.523438 8.675781 22.378906 C 9.21875 20.238281 9.667969 18.386719 9.667969 18.261719 C 9.667969 17.878906 9.523438 17.695312 8.566406 16.898438 C 8.058594 16.476562 6.652344 15.296875 5.4375 14.28125 L 3.226562 12.429688 L 3.648438 12.394531 C 3.882812 12.375 5.101562 12.292969 6.359375 12.214844 C 10.667969 11.941406 11.394531 11.882812 11.511719 11.824219 C 11.859375 11.644531 11.925781 11.507812 13.449219 7.671875 C 14.28125 5.582031 14.96875 3.875 14.976562 3.882812 C 14.988281 3.894531 15.667969 5.597656 16.496094 7.675781 M 7.410156 5.53125 C 6.726562 5.835938 6.671875 6.816406 7.324219 7.148438 C 7.933594 7.460938 8.59375 7.113281 8.660156 6.449219 C 8.722656 5.761719 8.035156 5.253906 7.410156 5.53125 M 21.808594 5.570312 C 21.171875 5.894531 21.175781 6.867188 21.820312 7.171875 C 22.46875 7.480469 23.207031 6.980469 23.128906 6.28125 C 23.054688 5.632812 22.390625 5.273438 21.808594 5.570312 M 14.683594 10.023438 C 14.320312 10.128906 14.203125 10.328125 13.585938 11.890625 C 13.261719 12.714844 12.972656 13.414062 12.945312 13.441406 C 12.917969 13.46875 12.152344 13.542969 11.242188 13.601562 C 9.425781 13.722656 9.351562 13.742188 9.097656 14.117188 C 8.707031 14.695312 8.894531 14.992188 10.4375 16.28125 L 11.707031 17.335938 L 11.304688 18.90625 C 10.800781 20.863281 10.800781 21.023438 11.308594 21.371094 C 11.726562 21.65625 11.980469 21.585938 13.101562 20.882812 C 13.644531 20.539062 14.289062 20.132812 14.535156 19.980469 L 14.976562 19.703125 L 16.402344 20.601562 C 18.003906 21.613281 18.1875 21.675781 18.632812 21.371094 C 19.140625 21.027344 19.140625 20.867188 18.640625 18.902344 L 18.242188 17.328125 L 19.503906 16.28125 C 21.042969 15.007812 21.234375 14.695312 20.84375 14.117188 C 20.589844 13.738281 20.507812 13.71875 18.695312 13.601562 C 17.785156 13.539062 17.023438 13.46875 16.996094 13.441406 C 16.972656 13.410156 16.683594 12.714844 16.355469 11.886719 C 15.609375 10.019531 15.414062 9.804688 14.683594 10.023438 M 15.269531 14.09375 C 15.710938 15.203125 15.730469 15.21875 16.832031 15.300781 C 17.257812 15.328125 17.632812 15.363281 17.660156 15.371094 C 17.6875 15.378906 17.433594 15.617188 17.09375 15.894531 C 16.582031 16.316406 16.457031 16.453125 16.371094 16.675781 L 16.265625 16.949219 L 16.679688 18.613281 L 15.976562 18.171875 C 15.011719 17.5625 14.929688 17.5625 13.960938 18.171875 L 13.261719 18.617188 L 13.46875 17.785156 L 13.675781 16.949219 L 13.570312 16.679688 C 13.484375 16.457031 13.355469 16.316406 12.851562 15.894531 C 12.511719 15.613281 12.257812 15.378906 12.285156 15.371094 C 12.3125 15.363281 12.683594 15.328125 13.113281 15.296875 C 14.238281 15.214844 14.253906 15.203125 14.769531 13.875 C 14.878906 13.597656 14.972656 13.371094 14.980469 13.378906 C 14.984375 13.382812 15.113281 13.703125 15.269531 14.09375 M 2.871094 19.328125 C 2.238281 19.664062 2.238281 20.574219 2.875 20.90625 C 3.5 21.234375 4.179688 20.832031 4.1875 20.132812 C 4.191406 19.441406 3.480469 19.003906 2.871094 19.328125 M 26.25 19.351562 C 25.269531 20.015625 26.078125 21.453125 27.125 20.90625 C 27.757812 20.574219 27.761719 19.640625 27.128906 19.320312 C 26.84375 19.175781 26.484375 19.191406 26.25 19.351562 M 14.589844 27.816406 C 13.769531 28.230469 14.082031 29.53125 15 29.53125 C 15.5 29.53125 15.878906 29.140625 15.878906 28.625 C 15.878906 28.105469 15.5 27.714844 15 27.714844 C 14.886719 27.714844 14.703125 27.761719 14.589844 27.816406 " />
    </g>
</svg>