<svg width="236" height="236" viewBox="0 0 236 236" fill="none" xmlns="http://www.w3.org/2000/svg">
<path d="M235.883 116.425L226.091 116.809L225.849 110.654L227.528 110.588L227.697 114.897L230.061 114.804L229.905 110.831L231.584 110.765L231.74 114.738L235.811 114.578L235.883 116.425Z" fill="#2C3135"/>
<path d="M235.363 102.693L225.688 104.251L225.011 100.049C224.913 99.4412 224.934 98.8943 225.073 98.4086C225.212 97.923 225.455 97.5246 225.802 97.2134C226.149 96.9023 226.585 96.7044 227.11 96.6198L227.276 96.5931C227.857 96.4996 228.349 96.5621 228.753 96.7807C229.157 96.9992 229.474 97.2979 229.705 97.6766L229.954 97.6365C229.913 97.265 229.996 96.9585 230.203 96.7172C230.401 96.4774 230.693 96.3263 231.08 96.264L234.245 95.7542L234.539 97.5786L231.637 98.0462C231.416 98.0818 231.246 98.1706 231.127 98.3127C231.006 98.4455 230.968 98.6455 231.011 98.9128L231.42 101.456L235.069 100.868L235.363 102.693ZM229.762 101.723L229.41 99.5393C229.34 99.1062 229.171 98.7884 228.902 98.586C228.622 98.3758 228.289 98.3018 227.902 98.3642L227.764 98.3864C227.377 98.4488 227.087 98.6183 226.895 98.895C226.694 99.1731 226.63 99.5334 226.701 99.9756L227.053 102.159L229.762 101.723Z" fill="#2C3135"/>
<path d="M232.89 90.0891L223.472 92.799L221.729 86.7448L223.344 86.2802L224.575 90.5585L226.822 89.912L225.699 86.0104L227.314 85.5459L228.437 89.4475L230.764 88.7778L229.51 84.4188L231.124 83.9542L232.89 90.0891Z" fill="#2C3135"/>
<path d="M228.089 75.2896L219.149 79.3048L216.568 73.5582L218.1 72.8698L219.925 76.9308L222.057 75.9729L220.393 72.2695L221.926 71.5812L223.59 75.2846L225.799 74.2922L223.94 70.1547L225.473 69.4663L228.089 75.2896Z" fill="#2C3135"/>
<path d="M217.765 57.9101C217.964 58.2264 218.07 58.5621 218.083 58.9172C218.091 59.2645 218.015 59.5989 217.853 59.9206C217.686 60.2345 217.44 60.493 217.116 60.6962C216.8 60.8944 216.47 61.0017 216.128 61.0179C215.773 61.0312 215.438 60.9545 215.125 60.7877C214.811 60.6209 214.552 60.3754 214.349 60.0512C214.141 59.7191 214.032 59.3794 214.024 59.0322C214.003 58.682 214.078 58.354 214.25 58.0481C214.409 57.7392 214.654 57.4807 214.986 57.2725C215.319 57.0644 215.665 56.9576 216.025 56.9522C216.372 56.9438 216.703 57.023 217.016 57.1898C217.322 57.3616 217.572 57.6017 217.765 57.9101Z" fill="#2C3135"/>
<path d="M212.018 47.3827L204.4 53.5471L200.524 48.759L201.83 47.7022L204.543 51.0539L206.383 49.5656L203.881 46.4751L205.187 45.4184L207.689 48.5089L210.856 45.9462L212.018 47.3827Z" fill="#2C3135"/>
<path d="M202.764 36.19L195.972 43.2547L192.903 40.3055C192.459 39.8787 192.147 39.4294 191.966 38.9578C191.785 38.4861 191.739 38.0217 191.829 37.5645C191.919 37.1073 192.149 36.6869 192.517 36.3034L192.634 36.1823C193.041 35.7584 193.472 35.5123 193.926 35.4439C194.38 35.3755 194.814 35.4231 195.226 35.5865L195.401 35.4049C195.145 35.1327 195.027 34.838 195.047 34.5208C195.06 34.2103 195.203 33.9138 195.475 33.6312L197.697 31.3201L199.029 32.6006L196.992 34.72C196.836 34.8815 196.754 35.0547 196.744 35.2397C196.728 35.4182 196.818 35.6013 197.013 35.7888L198.87 37.5739L201.432 34.9095L202.764 36.19ZM197.706 38.7849L196.111 37.2522C195.795 36.9482 195.468 36.7962 195.131 36.7963C194.782 36.7966 194.471 36.938 194.199 37.2206L194.102 37.3215C193.83 37.6041 193.701 37.9136 193.714 38.25C193.721 38.5931 193.886 38.9198 194.209 39.2303L195.804 40.763L197.706 38.7849Z" fill="#2C3135"/>
<path d="M191.372 26.1627L185.512 34.0177L180.462 30.2515L181.466 28.9049L185.035 31.5664L186.433 29.6924L183.178 27.2653L184.183 25.9187L187.438 28.3458L188.886 26.4045L185.25 23.6928L186.254 22.3462L191.372 26.1627Z" fill="#2C3135"/>
<path d="M180.185 18.4772L175.13 26.8728L169.732 23.6239L170.599 22.1847L174.413 24.4805L175.619 22.4776L172.141 20.3839L173.007 18.9446L176.486 21.0383L177.735 18.9634L173.849 16.6242L174.715 15.185L180.185 18.4772Z" fill="#2C3135"/>
<path d="M162.516 12.4972C162.854 12.6557 163.125 12.8806 163.328 13.172C163.524 13.4593 163.64 13.7821 163.678 14.1402C163.708 14.4943 163.642 14.8446 163.479 15.191C163.321 15.529 163.102 15.7975 162.823 15.9966C162.531 16.2001 162.209 16.3167 161.854 16.3465C161.5 16.3762 161.15 16.3099 160.804 16.1474C160.449 15.9809 160.174 15.754 159.979 15.4666C159.771 15.1837 159.657 14.8672 159.635 14.517C159.602 14.1714 159.668 13.8211 159.835 13.4662C160.001 13.1113 160.234 12.8341 160.534 12.6345C160.822 12.4394 161.142 12.327 161.497 12.2973C161.847 12.276 162.187 12.3426 162.516 12.4972Z" fill="#2C3135"/>
<path d="M149.173 5.13913L146.878 14.6665L140.889 13.2241L141.283 11.5908L145.475 12.6005L146.029 10.3003L142.163 9.3693L142.557 7.73604L146.422 8.66706L147.377 4.7064L149.173 5.13913Z" fill="#2C3135"/>
<path d="M135.45 1.95491L134.359 11.6939L130.129 11.22C129.517 11.1514 128.996 10.9849 128.565 10.7207C128.134 10.4564 127.816 10.1155 127.609 9.69784C127.402 9.28022 127.328 8.80707 127.388 8.27838L127.406 8.11142C127.472 7.52708 127.664 7.06964 127.983 6.73908C128.302 6.40853 128.675 6.18264 129.101 6.06142L129.129 5.81099C128.76 5.75086 128.488 5.58879 128.31 5.32477C128.132 5.07002 128.065 4.74786 128.109 4.3583L128.466 1.17226L130.303 1.37805L129.975 4.29976C129.95 4.52236 129.99 4.70998 130.095 4.86263C130.191 5.01423 130.373 5.1051 130.642 5.13524L133.202 5.42211L133.614 1.74911L135.45 1.95491ZM133.015 7.09165L130.817 6.84532C130.381 6.79647 130.029 6.87447 129.762 7.07933C129.485 7.29242 129.324 7.59375 129.28 7.98331L129.265 8.12244C129.221 8.512 129.307 8.83623 129.522 9.09513C129.736 9.36331 130.066 9.52235 130.511 9.57224L132.709 9.81857L133.015 7.09165Z" fill="#2C3135"/>
<path d="M120.719 0.985596L120.848 10.7847L114.548 10.8677L114.526 9.18785L118.978 9.12923L118.947 6.79143L114.887 6.84489L114.865 5.16504L118.925 5.11158L118.893 2.68979L114.357 2.74952L114.335 1.06966L120.719 0.985596Z" fill="#2C3135"/>
<path d="M106.063 1.22021L107.369 10.9328L101.126 11.7721L100.902 10.1071L105.314 9.51399L105.002 7.19684L100.979 7.73776L100.755 6.07275L104.779 5.53183L104.456 3.13144L99.9602 3.73577L99.7363 2.07076L106.063 1.22021Z" fill="#2C3135"/>
<path d="M91.0709 5.60177C91.4327 5.50949 91.7847 5.51119 92.127 5.60688C92.4602 5.70487 92.7554 5.88002 93.0124 6.13231C93.2604 6.38691 93.4317 6.6996 93.5263 7.07038C93.6186 7.43212 93.6203 7.77845 93.5314 8.10937C93.4357 8.45165 93.2606 8.74676 93.006 8.99473C92.7514 9.24269 92.4387 9.41397 92.0679 9.50856C91.6881 9.60546 91.3315 9.60492 90.9983 9.50692C90.6583 9.42027 90.3689 9.2485 90.1299 8.99159C89.8842 8.74604 89.7129 8.43335 89.616 8.05352C89.5191 7.67369 89.5229 7.31149 89.6277 6.96691C89.7256 6.63368 89.9019 6.34309 90.1565 6.09512C90.4134 5.8562 90.7182 5.69175 91.0709 5.60177Z" fill="#2C3135"/>
<path d="M76.5911 7.73776L80.1382 16.8733L74.3957 19.1023L73.7876 17.5362L77.8074 15.9759L76.951 13.7703L73.2444 15.209L72.6364 13.6429L76.3429 12.2042L74.8683 8.40646L76.5911 7.73776Z" fill="#2C3135"/>
<path d="M65.4806 13.0451L70.1001 21.6881L66.3463 23.6937C65.803 23.984 65.2791 24.1423 64.7745 24.1685C64.27 24.1947 63.8142 24.0943 63.4071 23.8673C63.0001 23.6404 62.6712 23.2923 62.4204 22.8231L62.3412 22.675C62.064 22.1564 61.9631 21.6706 62.0385 21.2176C62.1139 20.7647 62.2931 20.3673 62.5761 20.0256L62.4573 19.8034C62.1192 19.9629 61.8024 19.984 61.507 19.8667C61.2159 19.7577 60.9779 19.5303 60.7931 19.1846L59.2819 16.3571L60.9118 15.4863L62.2977 18.0791C62.4033 18.2767 62.5426 18.4086 62.7156 18.4749C62.8804 18.5456 63.0821 18.5172 63.3208 18.3896L65.5928 17.1756L63.8506 13.916L65.4806 13.0451ZM66.3848 18.6573L64.4338 19.6997C64.0469 19.9064 63.8014 20.1699 63.6974 20.49C63.5895 20.8228 63.628 21.162 63.8127 21.5077L63.8787 21.6312C64.0635 21.9769 64.3179 22.1955 64.6419 22.2869C64.9704 22.3866 65.3321 22.3308 65.7273 22.1197L67.6782 21.0773L66.3848 18.6573Z" fill="#2C3135"/>
<path d="M54.4016 19.79L59.8174 27.9576L54.5664 31.4384L53.6379 30.0382L57.3487 27.5785L56.0566 25.6299L52.6726 27.8731L51.7442 26.473L55.1282 24.2298L53.7897 22.2112L50.0089 24.7174L49.0805 23.3172L54.4016 19.79Z" fill="#2C3135"/>
<path d="M44.4017 27.79L49.8175 35.9575L44.5664 39.4384L43.638 38.0382L47.3488 35.5784L46.0567 33.6299L42.6727 35.8731L41.7442 34.4729L45.1283 32.2297L43.7898 30.2112L40.009 32.7174L39.0806 31.3172L44.4017 27.79Z" fill="#2C3135"/>
<path d="M34.8443 43.1106C35.1326 42.8734 35.452 42.7253 35.8025 42.6665C36.1458 42.6136 36.4874 42.6467 36.8273 42.7659C37.16 42.891 37.448 43.1012 37.6912 43.3967C37.9285 43.6849 38.0772 43.9977 38.1373 44.335C38.1962 44.6855 38.163 45.027 38.0379 45.3596C37.9129 45.6923 37.7026 45.9802 37.4071 46.2234C37.1044 46.4725 36.7814 46.6235 36.4381 46.6764C36.0935 46.7424 35.7585 46.7099 35.433 46.5789C35.1063 46.461 34.8183 46.2507 34.5691 45.9481C34.32 45.6455 34.1696 45.316 34.1179 44.9596C34.065 44.6163 34.1011 44.2784 34.2262 43.9457C34.3572 43.6203 34.5633 43.3419 34.8443 43.1106Z" fill="#2C3135"/>
<path d="M23.4701 48.8359L31.0918 54.9963L27.2187 59.7865L25.9122 58.7304L28.6233 55.3773L26.7832 53.89L24.2833 56.9818L22.9768 55.9257L25.4766 52.8339L22.3082 50.273L23.4701 48.8359Z" fill="#2C3135"/>
<path d="M16.5646 59.3106L24.8936 64.4746L22.6505 68.0915C22.3258 68.6149 21.9517 69.0145 21.5282 69.29C21.1047 69.5655 20.66 69.7071 20.194 69.7147C19.728 69.7223 19.269 69.5859 18.8168 69.3056L18.674 69.2171C18.1743 68.9072 17.8435 68.5374 17.6817 68.1077C17.5199 67.6779 17.4759 67.2443 17.5495 66.8068L17.3354 66.674C17.1227 66.9814 16.8592 67.1584 16.5447 67.2051C16.2382 67.2566 15.9183 67.1791 15.5852 66.9726L12.8604 65.2832L13.8344 63.7127L16.3331 65.2619C16.5235 65.3799 16.7101 65.4243 16.8931 65.395C17.0711 65.3735 17.2314 65.2478 17.3741 65.0178L18.7318 62.8286L15.5906 60.8811L16.5646 59.3106ZM20.1596 63.7139L18.9938 65.5937C18.7626 65.9665 18.6822 66.3175 18.7526 66.6467C18.826 66.9887 19.0293 67.263 19.3625 67.4696L19.4815 67.5433C19.8146 67.7499 20.1443 67.8115 20.4705 67.7282C20.8047 67.6499 21.0898 67.4204 21.3259 67.0396L22.4918 65.1598L20.1596 63.7139Z" fill="#2C3135"/>
<path d="M8.85017 71.8863L17.7571 75.9736L15.1289 81.6991L13.602 80.9985L15.4593 76.9524L13.3343 75.9773L11.6406 79.6671L10.1136 78.9664L11.8074 75.2766L9.60612 74.2664L7.71377 78.3889L6.18686 77.6882L8.85017 71.8863Z" fill="#2C3135"/>
<path d="M4.35139 85.4793L13.685 88.4666L11.764 94.4665L10.164 93.9544L11.5215 89.7144L9.29472 89.0018L8.05676 92.8684L6.45671 92.3563L7.69468 88.4897L5.38795 87.7514L4.00484 92.0714L2.40479 91.5592L4.35139 85.4793Z" fill="#2C3135"/>
<path d="M3.27588 108.065C3.32235 107.695 3.45273 107.368 3.66703 107.084C3.88016 106.81 4.15115 106.6 4.47999 106.453C4.80767 106.315 5.16135 106.27 5.54105 106.318C5.91148 106.364 6.23441 106.489 6.50984 106.693C6.79338 106.907 7.00395 107.178 7.14156 107.506C7.27918 107.834 7.32417 108.187 7.27654 108.567C7.22774 108.956 7.09678 109.288 6.88364 109.562C6.67861 109.847 6.41283 110.053 6.08632 110.182C5.7679 110.32 5.41421 110.365 5.02526 110.317C4.6363 110.268 4.30064 110.132 4.01827 109.908C3.744 109.695 3.53806 109.425 3.40044 109.097C3.27209 108.77 3.23057 108.427 3.27588 108.065Z" fill="#2C3135"/>
<path d="M0.852295 125.141L10.6319 124.509L11.0293 130.656L9.35277 130.765L9.0746 126.462L6.71353 126.614L6.97001 130.582L5.29351 130.69L5.03703 126.722L0.971506 126.985L0.852295 125.141Z" fill="#2C3135"/>
<path d="M2.38262 137.271L12.0154 135.469L12.7985 139.652C12.9119 140.257 12.9051 140.805 12.7782 141.294C12.6514 141.783 12.4185 142.187 12.0795 142.507C11.7406 142.827 11.3097 143.036 10.7867 143.133L10.6216 143.164C10.0436 143.272 9.55 143.222 9.14069 143.014C8.73138 142.806 8.40638 142.515 8.16568 142.143L7.91798 142.189C7.96833 142.559 7.89313 142.868 7.69238 143.114C7.50081 143.359 7.21237 143.517 6.82706 143.59L3.67576 144.179L3.33573 142.363L6.22557 141.822C6.44574 141.781 6.61348 141.688 6.72876 141.543C6.84577 141.407 6.87937 141.206 6.82957 140.94L6.35559 138.408L2.72265 139.088L2.38262 137.271ZM8.00692 138.099L8.41393 140.273C8.49464 140.704 8.672 141.018 8.946 141.213C9.23089 141.416 9.566 141.482 9.95131 141.41L10.0889 141.384C10.4742 141.312 10.7592 141.135 10.9439 140.854C11.1378 140.57 11.1935 140.209 11.1111 139.768L10.7041 137.594L8.00692 138.099Z" fill="#2C3135"/>
<path d="M4.89698 149.862L14.2433 146.915L16.1385 152.923L14.5363 153.429L13.197 149.183L10.9672 149.886L12.1886 153.758L10.5863 154.263L9.36501 150.391L7.05513 151.119L8.41963 155.445L6.81739 155.951L4.89698 149.862Z" fill="#2C3135"/>
<path d="M9.74345 164.641L18.5788 160.401L21.3052 166.08L19.7906 166.807L17.8639 162.794L15.756 163.805L17.5131 167.465L15.9984 168.192L14.2414 164.532L12.0578 165.58L14.0209 169.669L12.5062 170.396L9.74345 164.641Z" fill="#2C3135"/>
<path d="M21.1255 180.937C20.9193 180.626 20.805 180.293 20.7827 179.938C20.7655 179.591 20.8338 179.255 20.9874 178.929C21.1462 178.611 21.3851 178.347 21.7041 178.135C22.0154 177.929 22.3419 177.813 22.6837 177.789C23.0384 177.766 23.3747 177.835 23.6927 177.993C24.0107 178.152 24.2754 178.391 24.4868 178.71C24.7033 179.037 24.8202 179.374 24.8373 179.72C24.8674 180.07 24.8005 180.4 24.6365 180.71C24.4855 181.023 24.2466 181.287 23.9198 181.504C23.593 181.72 23.2497 181.836 22.8898 181.85C22.5429 181.868 22.2104 181.797 21.8924 181.638C21.5822 181.474 21.3266 181.24 21.1255 180.937Z" fill="#2C3135"/>
<path d="M27.5445 192.709L35.0046 186.354L39 191.043L37.7211 192.132L34.9244 188.85L33.1233 190.384L35.7021 193.411L34.4232 194.5L31.8444 191.474L28.7431 194.116L27.5445 192.709Z" fill="#2C3135"/>
<path d="M36.1713 202.656L42.7824 195.422L45.9246 198.292C46.3794 198.708 46.7032 199.149 46.896 199.616C47.0888 200.083 47.146 200.546 47.0676 201.005C46.9893 201.465 46.7706 201.891 46.4117 202.283L46.2984 202.407C45.9017 202.841 45.4772 203.098 45.025 203.178C44.5727 203.258 44.1383 203.221 43.7218 203.068L43.5518 203.254C43.8148 203.52 43.9403 203.812 43.9281 204.129C43.9223 204.44 43.7872 204.74 43.5228 205.029L41.36 207.396L39.9956 206.15L41.979 203.979C42.1301 203.814 42.2081 203.639 42.2129 203.454C42.2247 203.275 42.1306 203.094 41.9308 202.911L40.029 201.174L37.5356 203.902L36.1713 202.656ZM41.1623 199.934L42.7954 201.426C43.1193 201.722 43.4495 201.865 43.7861 201.857C44.1358 201.848 44.4429 201.698 44.7074 201.409L44.8018 201.306C45.0662 201.016 45.1876 200.704 45.1658 200.368C45.1504 200.025 44.9773 199.702 44.6465 199.4L43.0134 197.908L41.1623 199.934Z" fill="#2C3135"/>
<path d="M47.5894 212.647L53.2488 204.646L58.3926 208.284L57.4225 209.655L53.7875 207.085L52.4373 208.994L55.7522 211.338L54.7821 212.709L51.4671 210.365L50.0684 212.343L53.772 214.961L52.8019 216.333L47.5894 212.647Z" fill="#2C3135"/>
<path d="M59.7921 220.302L64.6332 211.781L70.1113 214.893L69.2814 216.353L65.4102 214.155L64.2553 216.188L67.7856 218.193L66.9557 219.653L63.4254 217.648L62.2289 219.754L66.1731 221.994L65.3432 223.455L59.7921 220.302Z" fill="#2C3135"/>
<path d="M78.4607 225.189C78.1188 225.039 77.8425 224.821 77.6316 224.535C77.4293 224.253 77.3046 223.933 77.2574 223.576C77.2187 223.223 77.2762 222.871 77.4299 222.521C77.5799 222.179 77.7918 221.905 78.0657 221.699C78.3518 221.488 78.6715 221.363 79.0248 221.324C79.3781 221.286 79.73 221.343 80.0805 221.497C80.4395 221.654 80.7201 221.874 80.9224 222.157C81.137 222.434 81.2593 222.748 81.2895 223.097C81.3319 223.442 81.2743 223.794 81.1169 224.153C80.9594 224.512 80.7333 224.795 80.4386 225.002C80.1563 225.204 79.8384 225.325 79.4851 225.363C79.1355 225.393 78.7941 225.335 78.4607 225.189Z" fill="#2C3135"/>
<path d="M92.6436 232.539L94.6974 222.957L100.721 224.247L100.369 225.89L96.1523 224.986L95.6565 227.3L99.5443 228.133L99.1922 229.776L95.3044 228.943L94.4506 232.926L92.6436 232.539Z" fill="#2C3135"/>
<path d="M104.564 234.681L105.409 224.917L109.649 225.284C110.263 225.337 110.788 225.49 111.225 225.744C111.662 225.997 111.99 226.33 112.207 226.742C112.424 227.154 112.51 227.625 112.464 228.155L112.45 228.323C112.399 228.908 112.218 229.371 111.908 229.709C111.598 230.048 111.231 230.283 110.807 230.415L110.785 230.666C111.156 230.717 111.433 230.872 111.616 231.131C111.801 231.381 111.876 231.702 111.842 232.092L111.566 235.286L109.725 235.127L109.978 232.198C109.997 231.975 109.953 231.788 109.844 231.638C109.744 231.489 109.56 231.403 109.29 231.38L106.724 231.158L106.405 234.84L104.564 234.681ZM106.869 229.484L109.072 229.675C109.509 229.712 109.859 229.626 110.121 229.414C110.393 229.194 110.546 228.889 110.579 228.498L110.591 228.359C110.625 227.968 110.531 227.646 110.31 227.393C110.089 227.13 109.755 226.979 109.309 226.941L107.105 226.75L106.869 229.484Z" fill="#2C3135"/>
<path d="M119.294 235.606L118.917 225.813L125.213 225.571L125.277 227.249L120.829 227.421L120.919 229.757L124.976 229.601L125.04 231.28L120.983 231.436L121.076 233.856L125.609 233.681L125.674 235.36L119.294 235.606Z" fill="#2C3135"/>
<path d="M133.943 235.329L132.392 225.652L138.612 224.655L138.878 226.314L134.482 227.019L134.852 229.327L138.861 228.685L139.127 230.344L135.118 230.986L135.502 233.378L139.981 232.66L140.247 234.319L133.943 235.329Z" fill="#2C3135"/>
<path d="M151.874 229.874C151.515 229.975 151.163 229.982 150.818 229.895C150.483 229.806 150.183 229.638 149.92 229.392C149.666 229.144 149.486 228.836 149.382 228.467C149.281 228.108 149.271 227.762 149.351 227.429C149.438 227.084 149.606 226.785 149.854 226.531C150.102 226.276 150.41 226.097 150.779 225.993C151.156 225.887 151.512 225.878 151.848 225.968C152.19 226.046 152.484 226.21 152.729 226.461C152.981 226.7 153.16 227.009 153.267 227.386C153.373 227.763 153.378 228.125 153.283 228.472C153.193 228.808 153.024 229.103 152.776 229.357C152.525 229.603 152.225 229.775 151.874 229.874Z" fill="#2C3135"/>
<path d="M164.248 228.283L160.158 219.377L165.756 216.807L166.458 218.334L162.539 220.133L163.526 222.283L167.14 220.624L167.841 222.151L164.227 223.81L165.928 227.512L164.248 228.283Z" fill="#2C3135"/>
<path d="M174.479 223.389L169.643 214.866L173.344 212.766C173.88 212.462 174.4 212.29 174.904 212.251C175.407 212.212 175.866 212.301 176.278 212.518C176.691 212.734 177.029 213.074 177.291 213.537L177.374 213.683C177.664 214.194 177.777 214.677 177.713 215.132C177.65 215.587 177.48 215.988 177.206 216.337L177.331 216.556C177.665 216.388 177.981 216.359 178.279 216.469C178.573 216.571 178.816 216.792 179.01 217.133L180.592 219.921L178.985 220.833L177.534 218.276C177.423 218.081 177.281 217.953 177.106 217.891C176.939 217.824 176.738 217.858 176.503 217.992L174.262 219.263L176.087 222.477L174.479 223.389ZM173.433 217.801L175.357 216.71C175.739 216.494 175.978 216.224 176.074 215.901C176.173 215.566 176.126 215.228 175.932 214.887L175.863 214.765C175.67 214.424 175.41 214.212 175.084 214.129C174.753 214.038 174.393 214.102 174.003 214.323L172.079 215.415L173.433 217.801Z" fill="#2C3135"/>
<path d="M185.539 216.617L179.918 208.589L185.079 204.976L186.043 206.352L182.396 208.905L183.737 210.82L187.063 208.492L188.026 209.869L184.7 212.197L186.089 214.181L189.805 211.58L190.769 212.956L185.539 216.617Z" fill="#2C3135"/>
<path d="M195.61 209.66L189.192 202.255L193.953 198.129L195.053 199.399L191.689 202.314L193.22 204.081L196.288 201.422L197.389 202.692L194.32 205.35L195.906 207.181L199.335 204.21L200.435 205.48L195.61 209.66Z" fill="#2C3135"/>
<path d="M208.301 196.064C208.074 196.36 207.796 196.577 207.468 196.713C207.145 196.842 206.805 196.887 206.447 196.847C206.094 196.8 205.766 196.661 205.463 196.428C205.167 196.2 204.951 195.929 204.817 195.614C204.68 195.286 204.635 194.946 204.682 194.593C204.729 194.241 204.869 193.913 205.102 193.61C205.341 193.299 205.621 193.079 205.944 192.95C206.265 192.808 206.598 192.764 206.945 192.818C207.29 192.859 207.618 192.999 207.929 193.238C208.24 193.476 208.461 193.763 208.591 194.099C208.72 194.421 208.762 194.759 208.715 195.111C208.66 195.458 208.522 195.775 208.301 196.064Z" fill="#2C3135"/>
<path d="M221.985 184.78L213.129 180.584L215.768 175.018L217.286 175.737L215.439 179.634L217.577 180.647L219.28 177.054L220.798 177.773L219.095 181.366L222.777 183.11L221.985 184.78Z" fill="#2C3135"/>
<path d="M225.934 175.408L216.927 171.547L218.604 167.635C218.847 167.069 219.157 166.618 219.534 166.282C219.912 165.946 220.33 165.74 220.79 165.663C221.25 165.586 221.724 165.652 222.213 165.861L222.367 165.928C222.908 166.159 223.29 166.475 223.514 166.876C223.739 167.277 223.847 167.699 223.84 168.143L224.071 168.242C224.235 167.906 224.47 167.692 224.774 167.599C225.069 167.502 225.397 167.531 225.757 167.685L228.704 168.948L227.976 170.647L225.273 169.488C225.067 169.4 224.876 169.384 224.7 169.441C224.527 169.488 224.387 169.637 224.281 169.885L223.265 172.253L226.663 173.709L225.934 175.408ZM221.721 171.591L222.593 169.558C222.766 169.155 222.793 168.796 222.674 168.481C222.55 168.154 222.308 167.913 221.948 167.758L221.819 167.703C221.459 167.549 221.124 167.537 220.814 167.668C220.495 167.796 220.247 168.065 220.071 168.477L219.199 170.51L221.721 171.591Z" fill="#2C3135"/>
<path d="M232.392 154.802L222.986 152.052L224.755 146.005L226.367 146.477L225.117 150.75L227.361 151.406L228.501 147.509L230.114 147.981L228.974 151.877L231.299 152.557L232.572 148.203L234.184 148.675L232.392 154.802Z" fill="#2C3135"/>
<path d="M230.392 164.802L220.986 162.052L222.755 156.005L224.367 156.477L223.117 160.75L225.361 161.406L226.501 157.509L228.114 157.981L226.974 161.877L229.299 162.557L230.572 158.203L232.184 158.675L230.392 164.802Z" fill="#2C3135"/>
<path d="M233.353 130.241C233.315 130.612 233.193 130.943 232.986 131.231C232.78 131.511 232.515 131.728 232.19 131.883C231.866 132.029 231.513 132.083 231.132 132.045C230.761 132.008 230.435 131.891 230.154 131.694C229.865 131.487 229.648 131.222 229.502 130.898C229.356 130.574 229.302 130.221 229.34 129.84C229.379 129.45 229.502 129.116 229.708 128.836C229.906 128.546 230.166 128.333 230.49 128.196C230.804 128.05 231.157 127.996 231.547 128.035C231.937 128.074 232.276 128.201 232.564 128.417C232.843 128.624 233.056 128.889 233.202 129.213C233.339 129.536 233.389 129.879 233.353 130.241Z" fill="#2C3135"/>
</svg>
