<svg width="200" height="45" viewBox="0 0 200 45" fill="none" xmlns="http://www.w3.org/2000/svg">
<path d="M0 17.2456L0 27.0088H9.25926V17.2456H0Z" fill="#00707A"/>
<path d="M0 0L0 16H9.26L9.26 0H0Z" fill="#005E66"/>
<path d="M9.25926 28.4036H0V36.3071H9.25926V28.4036Z" fill="#00838F"/>
<path d="M200 30.7281C200 27.6469 197.513 25.1492 194.444 25.1492C191.376 25.1492 188.889 27.6469 188.889 30.7281C188.889 33.8093 191.376 36.3071 194.444 36.3071C197.513 36.3071 200 33.8093 200 30.7281Z" fill="#00838F"/>
<path d="M26.375 36.6C23.9028 36.6 21.7361 36.1118 19.875 35.1355C18.0417 34.1313 16.6111 32.7645 15.5833 31.035C14.5833 29.3055 14.0833 27.3389 14.0833 25.1353C14.0833 22.9037 14.5695 20.9371 15.5417 19.2355C16.5417 17.506 17.9028 16.1531 19.625 15.1768C21.375 14.2005 23.3611 13.7124 25.5833 13.7124C27.75 13.7124 29.6806 14.1866 31.375 15.135C33.0695 16.0834 34.4028 17.4224 35.375 19.1518C36.3472 20.8813 36.8333 22.9176 36.8333 25.2608C36.8333 25.4839 36.8195 25.735 36.7917 26.0139C36.7917 26.2929 36.7778 26.5579 36.75 26.8089H18.2083V23.336H34L31.9583 24.4239C31.9861 23.1408 31.7222 22.011 31.1667 21.0347C30.6111 20.0584 29.8472 19.2913 28.875 18.7334C27.9306 18.1755 26.8333 17.8966 25.5833 17.8966C24.3056 17.8966 23.1806 18.1755 22.2083 18.7334C21.2639 19.2913 20.5139 20.0724 19.9583 21.0766C19.4306 22.0529 19.1667 23.2105 19.1667 24.5495V25.3863C19.1667 26.7253 19.4722 27.9108 20.0833 28.9429C20.6945 29.975 21.5556 30.77 22.6667 31.3279C23.7778 31.8858 25.0556 32.1647 26.5 32.1647C27.75 32.1647 28.875 31.9695 29.875 31.5789C30.875 31.1884 31.7639 30.5747 32.5417 29.7379L35.3333 32.9597C34.3333 34.1313 33.0695 35.0379 31.5417 35.6795C30.0417 36.2931 28.3195 36.6 26.375 36.6ZM54.9343 36.3071V31.7881L54.6426 30.8258V22.9176C54.6426 21.3834 54.1843 20.1979 53.2676 19.361C52.3509 18.4963 50.962 18.0639 49.1009 18.0639C47.8509 18.0639 46.6148 18.2592 45.3926 18.6497C44.1982 19.0403 43.1843 19.5842 42.3509 20.2816L40.3093 16.4739C41.5037 15.5534 42.9204 14.87 44.5593 14.4237C46.2259 13.9495 47.9482 13.7124 49.7259 13.7124C52.9482 13.7124 55.4343 14.4934 57.1843 16.0555C58.9621 17.5897 59.8509 19.9747 59.8509 23.2105V36.3071H54.9343ZM47.9343 36.6C46.2676 36.6 44.8093 36.321 43.5593 35.7631C42.3093 35.1774 41.3371 34.3824 40.6426 33.3781C39.9759 32.346 39.6426 31.1884 39.6426 29.9053C39.6426 28.65 39.9343 27.5203 40.5176 26.516C41.1287 25.5118 42.1148 24.7168 43.4759 24.131C44.837 23.5453 46.6426 23.2524 48.8926 23.2524H55.3509V26.7253H49.2676C47.4898 26.7253 46.2954 27.0181 45.6843 27.6039C45.0732 28.1618 44.7676 28.8592 44.7676 29.696C44.7676 30.6445 45.1426 31.3976 45.8926 31.9555C46.6426 32.5134 47.6843 32.7924 49.0176 32.7924C50.2954 32.7924 51.4343 32.4995 52.4343 31.9137C53.4621 31.3279 54.1982 30.4632 54.6426 29.3195L55.5176 32.4576C55.0176 33.7687 54.1148 34.7868 52.8093 35.5121C51.5315 36.2374 49.9065 36.6 47.9343 36.6ZM66.5352 36.3071V13.9634H71.4935V20.1142L70.9102 18.315C71.5769 16.8087 72.6185 15.665 74.0352 14.8839C75.4796 14.1029 77.2713 13.7124 79.4102 13.7124V18.6916C79.188 18.6358 78.9796 18.6079 78.7852 18.6079C78.5908 18.58 78.3963 18.566 78.2019 18.566C76.2296 18.566 74.6602 19.1518 73.4935 20.3234C72.3269 21.4671 71.7435 23.1826 71.7435 25.47V36.3071H66.5352ZM96.4533 13.7124C98.231 13.7124 99.8144 14.061 101.203 14.7584C102.62 15.4558 103.731 16.5297 104.537 17.9803C105.342 19.4029 105.745 21.2439 105.745 23.5034V36.3071H100.537V24.1729C100.537 22.1924 100.064 20.7139 99.1199 19.7376C98.2033 18.7613 96.9116 18.2731 95.2449 18.2731C94.0227 18.2731 92.9394 18.5242 91.9949 19.0263C91.0505 19.5284 90.3144 20.2816 89.7866 21.2858C89.2866 22.2621 89.0366 23.5034 89.0366 25.0097V36.3071H83.8283V13.9634H88.7866V19.9887L87.9116 18.1476C88.6894 16.725 89.8144 15.6371 91.2866 14.8839C92.7866 14.1029 94.5088 13.7124 96.4533 13.7124ZM122.851 36.6C120.379 36.6 118.213 36.1118 116.351 35.1355C114.518 34.1313 113.088 32.7645 112.06 31.035C111.06 29.3055 110.56 27.3389 110.56 25.1353C110.56 22.9037 111.046 20.9371 112.018 19.2355C113.018 17.506 114.379 16.1531 116.101 15.1768C117.851 14.2005 119.838 13.7124 122.06 13.7124C124.226 13.7124 126.157 14.1866 127.851 15.135C129.546 16.0834 130.879 17.4224 131.851 19.1518C132.824 20.8813 133.31 22.9176 133.31 25.2608C133.31 25.4839 133.296 25.735 133.268 26.0139C133.268 26.2929 133.254 26.5579 133.226 26.8089H114.685V23.336H130.476L128.435 24.4239C128.463 23.1408 128.199 22.011 127.643 21.0347C127.088 20.0584 126.324 19.2913 125.351 18.7334C124.407 18.1755 123.31 17.8966 122.06 17.8966C120.782 17.8966 119.657 18.1755 118.685 18.7334C117.74 19.2913 116.99 20.0724 116.435 21.0766C115.907 22.0529 115.643 23.2105 115.643 24.5495V25.3863C115.643 26.7253 115.949 27.9108 116.56 28.9429C117.171 29.975 118.032 30.77 119.143 31.3279C120.254 31.8858 121.532 32.1647 122.976 32.1647C124.226 32.1647 125.351 31.9695 126.351 31.5789C127.351 31.1884 128.24 30.5747 129.018 29.7379L131.81 32.9597C130.81 34.1313 129.546 35.0379 128.018 35.6795C126.518 36.2931 124.796 36.6 122.851 36.6ZM138.313 36.3071V13.9634H143.271V20.1142L142.688 18.315C143.354 16.8087 144.396 15.665 145.812 14.8839C147.257 14.1029 149.049 13.7124 151.188 13.7124V18.6916C150.965 18.6358 150.757 18.6079 150.563 18.6079C150.368 18.58 150.174 18.566 149.979 18.566C148.007 18.566 146.438 19.1518 145.271 20.3234C144.104 21.4671 143.521 23.1826 143.521 25.47V36.3071H138.313ZM155.606 36.3071V5.26025H160.814V36.3071H155.606ZM169.483 44.7174C168.4 44.7174 167.317 44.536 166.233 44.1734C165.15 43.8108 164.247 43.3087 163.525 42.6671L165.608 38.8176C166.136 39.2918 166.733 39.6684 167.4 39.9474C168.067 40.2263 168.747 40.3658 169.442 40.3658C170.386 40.3658 171.15 40.1287 171.733 39.6545C172.317 39.1803 172.858 38.3853 173.358 37.2695L174.65 34.3405L175.067 33.7129L183.483 13.9634H188.483L178.067 38.1063C177.372 39.78 176.594 41.105 175.733 42.0813C174.9 43.0576 173.956 43.741 172.9 44.1316C171.872 44.5221 170.733 44.7174 169.483 44.7174ZM174.067 37.1021L164.025 13.9634H169.442L177.608 33.2526L174.067 37.1021Z" fill="#00838F"/>
</svg>
