<svg width="24" height="25" viewBox="0 0 24 25" fill="none" xmlns="http://www.w3.org/2000/svg">
    <path
        d="M21.2338 21.0984C20.3342 22.0163 19.2607 22.7458 18.076 23.2442C16.8914 23.7427 15.6193 24.0002 14.334 24.0017H14.2967C13.0169 24.0052 11.7491 23.7547 10.5669 23.2647C9.38461 22.7747 8.31135 22.0549 7.40929 21.1471L0.457406 14.1103C0.163173 13.8126 -0.0012651 13.4104 7.32997e-06 12.9918C0.00127976 12.5732 0.168159 12.172 0.464197 11.876L3.70811 8.63214C3.85485 8.48444 4.02947 8.36736 4.22183 8.2877C4.41419 8.20804 4.62045 8.16738 4.82865 8.16807H4.83771C5.04754 8.16846 5.25517 8.21082 5.44839 8.29265C5.6416 8.37449 5.8165 8.49415 5.96278 8.64459L12.8524 15.7074C13.2308 16.084 13.7412 16.298 14.2749 16.3039C14.8087 16.3099 15.3238 16.1072 15.7104 15.7391C15.9013 15.5534 16.0532 15.3313 16.157 15.086C16.2608 14.8407 16.3145 14.5771 16.3148 14.3107C16.3187 13.7422 16.0973 13.1952 15.699 12.7895L8.64868 5.97C8.49785 5.82368 8.37762 5.64883 8.295 5.45561C8.21238 5.26239 8.16902 5.05466 8.16744 4.84452C8.16586 4.63439 8.20609 4.42604 8.2858 4.23159C8.3655 4.03715 8.48309 3.86051 8.6317 3.71194L11.8767 0.468027C12.1727 0.174111 12.5722 0.00822224 12.9893 0.00610508C13.4064 0.00398792 13.8076 0.165812 14.1065 0.456708L21.1014 7.30333C24.9135 11.1143 24.9735 17.3033 21.2338 21.0984ZM4.9939 9.59422C4.97294 9.57283 4.94794 9.55581 4.92035 9.54415C4.89276 9.5325 4.86313 9.52643 4.83318 9.52631C4.77335 9.52768 4.71614 9.55106 4.67245 9.59195L1.42741 12.8359C1.38525 12.8783 1.36158 12.9357 1.36158 12.9955C1.36158 13.0553 1.38525 13.1126 1.42741 13.1551L4.28196 16.047L7.82921 12.4997L4.9939 9.59422ZM13.1558 1.42784C13.1133 1.38568 13.056 1.36202 12.9962 1.36202C12.9364 1.36202 12.879 1.38568 12.8366 1.42784L9.59265 4.67176C9.57133 4.69295 9.55445 4.71818 9.54298 4.74597C9.53152 4.77376 9.5257 4.80355 9.52587 4.83361C9.52615 4.86337 9.53229 4.89279 9.54394 4.92017C9.55559 4.94756 9.57253 4.97237 9.59378 4.99321L12.5129 7.81607L16.0601 4.26995L13.1558 1.42784ZM20.1518 8.26881L17.0369 5.21958L13.4953 8.76117L16.6532 11.8172L16.6611 11.8262C16.9876 12.1544 17.2457 12.5441 17.4205 12.9727C17.5954 13.4013 17.6835 13.8603 17.6798 14.3231C17.679 14.77 17.5885 15.2123 17.4135 15.6235C17.2385 16.0347 16.9826 16.4066 16.6611 16.717C16.0169 17.3304 15.1586 17.6682 14.2691 17.6585C13.3796 17.6488 12.529 17.2923 11.8983 16.665L8.77771 13.4754L5.23612 17.0136L8.37364 20.1896C9.14942 20.9702 10.0724 21.589 11.0892 22.0103C12.1059 22.4315 13.1961 22.6467 14.2967 22.6434H14.3284C15.4343 22.6423 16.529 22.4207 17.5483 21.9916C18.5676 21.5625 19.4912 20.9345 20.265 20.1443C23.484 16.88 23.4274 11.5512 20.1518 8.26881Z"
        fill="#2C3135" fill-opacity="0.16" />
</svg>