<svg width="512" height="512" viewBox="0 0 512 512" fill="none" xmlns="http://www.w3.org/2000/svg">
<g clip-path="url(#clip0_339_2)">
<path d="M456.348 0H55.6522C24.9163 0 0 24.9163 0 55.6522V456.348C0 487.084 24.9163 512 55.6522 512H456.348C487.084 512 512 487.084 512 456.348V55.6522C512 24.9163 487.084 0 456.348 0Z" fill="#00838F" stroke="#00838F"/>
<path d="M346.43 368.473C346.43 347.843 329.706 331.12 309.077 331.12C288.447 331.12 271.723 347.843 271.723 368.473C271.723 389.103 288.447 405.826 309.077 405.826C329.706 405.826 346.43 389.103 346.43 368.473Z" fill="#F6F6F7" stroke="#F6F6F7"/>
<path d="M223.698 352.464H165V405.826H223.698V352.464Z" fill="#F6F6F7" stroke="#F6F6F7"/>
<path d="M165 256.413V323.649H223.698V256.413H165Z" fill="#F6F6F7" stroke="#F6F6F7"/>
<path d="M165 107V224.396H223.698V107H165Z" fill="#F6F6F7" stroke="#F6F6F7"/>
</g>
<defs>
<clipPath id="clip0_339_2">
<rect width="512" height="512" fill="white"/>
</clipPath>
</defs>
</svg>
