<svg width="275" height="196" viewBox="0 0 275 196" fill="none" xmlns="http://www.w3.org/2000/svg">
<path d="M78 61C78 33.3858 100.386 11 128 11H275V146C275 173.614 252.614 196 225 196H78V61Z" fill="#F76464"/>
<path d="M11.8274 23.4528C11.8274 38.4072 8.68222 60.5247 12.7411 74.4172C13.1733 75.8964 15.3672 71.5504 15.8884 70.9423C25.4661 59.7667 42.396 53.1993 54.6703 49.5141C61.3997 47.4937 78 42.5612 78 42.5612C78 42.5612 63.2383 38.7896 57.6144 35.1804C42.4175 25.4276 26.525 20.3171 11.8274 11.0013C11.3087 10.6725 10 74.6413 10 86" stroke="#5A6872" stroke-width="20" stroke-linecap="round"/>
</svg>
