<svg width="275" height="185" viewBox="0 0 275 185" fill="none" xmlns="http://www.w3.org/2000/svg">
<path d="M0 50C0 22.3858 22.3858 0 50 0H197V135C197 162.614 174.614 185 147 185H0V50Z" fill="#32383D"/>
<path d="M263.173 67.4528C263.173 82.4072 266.318 104.525 262.259 118.417C261.827 119.896 259.633 115.55 259.112 114.942C249.534 103.767 232.604 97.1993 220.33 93.5141C213.6 91.4937 197 86.5612 197 86.5612C197 86.5612 211.762 82.7896 217.386 79.1804C232.583 69.4276 248.475 64.3171 263.173 55.0013C263.691 54.6725 265 118.641 265 130" stroke="#E0E4E7" stroke-width="20" stroke-linecap="round"/>
</svg>
