<svg width="16" height="12" viewBox="0 0 16 12" fill="none" xmlns="http://www.w3.org/2000/svg">
<path d="M4.23333 7.56667L2.83333 6.13333C3.48889 5.47778 4.25844 4.95844 5.142 4.57533C6.02556 4.19222 6.97822 4.00044 8 4C9.02222 4 9.97511 4.19444 10.8587 4.58333C11.7422 4.97222 12.5116 5.5 13.1667 6.16667L11.7667 7.56667C11.2778 7.07778 10.7111 6.69445 10.0667 6.41667C9.42222 6.13889 8.73333 6 8 6C7.26667 6 6.57778 6.13889 5.93333 6.41667C5.28889 6.69445 4.72222 7.07778 4.23333 7.56667ZM1.4 4.73333L0 3.33333C1.02222 2.28889 2.21667 1.47222 3.58333 0.883333C4.95 0.294444 6.42222 0 8 0C9.57778 0 11.05 0.294444 12.4167 0.883333C13.7833 1.47222 14.9778 2.28889 16 3.33333L14.6 4.73333C13.7444 3.87778 12.7527 3.20822 11.6247 2.72467C10.4967 2.24111 9.28844 1.99956 8 2C6.71111 2 5.50267 2.24178 4.37467 2.72533C3.24667 3.20889 2.25511 3.87822 1.4 4.73333ZM8 11.3333L10.35 8.96667C10.05 8.66667 9.7 8.43044 9.3 8.258C8.9 8.08556 8.46667 7.99956 8 8C7.53333 8 7.1 8.08622 6.7 8.25867C6.3 8.43111 5.95 8.66711 5.65 8.96667L8 11.3333Z" fill="#5A6872"/>
</svg>
